<svg width="28" height="29" viewBox="0 0 28 29" fill="none" xmlns="http://www.w3.org/2000/svg">
<path d="M9 26.5H15C20 26.5 22 24.5 22 19.5V13.5C22 8.5 20 6.5 15 6.5H9C4 6.5 2 8.5 2 13.5V19.5C2 24.5 4 26.5 9 26.5Z" stroke="#292D32" stroke-width="1.5" stroke-linecap="round" stroke-linejoin="round"/>
<path d="M9 14.5C10.1046 14.5 11 13.6046 11 12.5C11 11.3954 10.1046 10.5 9 10.5C7.89543 10.5 7 11.3954 7 12.5C7 13.6046 7.89543 14.5 9 14.5Z" stroke="#292D32" stroke-width="1.5" stroke-linecap="round" stroke-linejoin="round"/>
<path d="M2.66992 23.45L7.59992 20.14C8.38992 19.61 9.52992 19.67 10.2399 20.28L10.5699 20.57C11.3499 21.24 12.6099 21.24 13.3899 20.57L17.5499 17C18.3299 16.33 19.5899 16.33 20.3699 17L21.9999 18.4" stroke="#292D32" stroke-width="1.5" stroke-linecap="round" stroke-linejoin="round"/>
<path d="M19.9987 15.1667C23.6654 15.1667 26.6654 12.1667 26.6654 8.50004C26.6654 4.83337 23.6654 1.83337 19.9987 1.83337C16.332 1.83337 13.332 4.83337 13.332 8.50004C13.332 12.1667 16.332 15.1667 19.9987 15.1667Z" fill="#FB8500"/>
<path d="M17.332 8.5H22.6654" stroke="white" stroke-linecap="round" stroke-linejoin="round"/>
<path d="M20 11.1666V5.83331" stroke="white" stroke-linecap="round" stroke-linejoin="round"/>
</svg>
