<svg width="24" height="25" viewBox="0 0 24 25" fill="none" xmlns="http://www.w3.org/2000/svg">
<g id="vuesax/linear/gallery">
<g id="gallery">
<path id="Vector" d="M9 22.5H15C20 22.5 22 20.5 22 15.5V9.5C22 4.5 20 2.5 15 2.5H9C4 2.5 2 4.5 2 9.5V15.5C2 20.5 4 22.5 9 22.5Z" stroke="#292D32" stroke-width="1.5" stroke-linecap="round" stroke-linejoin="round"/>
<path id="Vector_2" d="M9 10.5C10.1046 10.5 11 9.60457 11 8.5C11 7.39543 10.1046 6.5 9 6.5C7.89543 6.5 7 7.39543 7 8.5C7 9.60457 7.89543 10.5 9 10.5Z" stroke="#292D32" stroke-width="1.5" stroke-linecap="round" stroke-linejoin="round"/>
<path id="Vector_3" d="M2.66992 19.45L7.59992 16.14C8.38992 15.61 9.52992 15.67 10.2399 16.28L10.5699 16.57C11.3499 17.24 12.6099 17.24 13.3899 16.57L17.5499 13C18.3299 12.33 19.5899 12.33 20.3699 13L21.9999 14.4" stroke="#292D32" stroke-width="1.5" stroke-linecap="round" stroke-linejoin="round"/>
</g>
</g>
</svg>
